<?xml version="1.0" encoding="utf-8"?>
<svg version="1.1" xmlns="http://www.w3.org/2000/svg" xmlns:xlink="http://www.w3.org/1999/xlink" x="0px" y="0px" viewBox="0 0 24 24" enable-background="new 0 0 24 24" xml:space="preserve">
<linearGradient id="SVGID_1_" gradientUnits="userSpaceOnUse" x1="1.006182e-002" y1="15.2127" x2="23.9899" y2="8.7873">
<stop  offset="0" style="stop-color:#F27A7D"/>
<stop  offset="0.5" style="stop-color:#F7D486"/>
<stop  offset="1" style="stop-color:#C5F9D7"/>
</linearGradient>
<path fill="url(#SVGID_1_)" d="M22.6,19.4c0.2,0,0.3-0.1,0.3-0.3c0.7-2.2,1.1-4.6,1.1-7.1s-0.4-4.8-1.1-7.1c0-0.2-0.2-0.3-0.3-0.3C21,4.3,19.7,3,19.4,1.4c0-0.2-0.1-0.3-0.3-0.3C16.8,0.4,14.5,0,12,0S7.2,0.4,4.9,1.1c-0.2,0-0.3,0.2-0.3,0.3C4.3,3,3,4.3,1.4,4.6c-0.2,0-0.3,0.1-0.3,0.3C0.4,7.2,0,9.5,0,12s0.4,4.8,1.1,7.1c0,0.2,0.2,0.3,0.3,0.3C3,19.7,4.3,21,4.6,22.6c0,0.2,0.1,0.3,0.3,0.3C7.2,23.6,9.5,24,12,24s4.8-0.4,7.1-1.1c0.2,0,0.3-0.2,0.3-0.3C19.7,21,21,19.7,22.6,19.4z"/>
<circle opacity="0.2" fill="#FFFFFF" cx="12" cy="12" r="10.2"/>
<circle opacity="0.75" fill="#FFFFFF" cx="12" cy="12" r="8"/>
<linearGradient id="SVGID_2_" gradientUnits="userSpaceOnUse" x1="9.6" y1="12" x2="16.56" y2="12">
<stop  offset="0" style="stop-color:#666666"/>
<stop  offset="1" style="stop-color:#333333"/>
</linearGradient>
<path opacity="0.75" fill="url(#SVGID_2_)" d="M9.6,15.7V8.3C9.6,8.1,9.8,8,10,8.1l6.5,3.7c0.2,0.1,0.2,0.3,0,0.4L10,15.9C9.8,16,9.6,15.9,9.6,15.7z"/>
</svg>
